<?xml version="1.0" encoding="UTF-8" standalone="no"?>
<!-- Created with Inkscape (http://www.inkscape.org/) -->

<svg
   width="2000"
   height="300"
   viewBox="0 0 529.16667 79.375"
   version="1.1"
   id="svg952"
   xmlns="http://www.w3.org/2000/svg"
   xmlns:svg="http://www.w3.org/2000/svg"
   xmlns:rdf="http://www.w3.org/1999/02/22-rdf-syntax-ns#"
   xmlns:cc="http://creativecommons.org/ns#"
   xmlns:dc="http://purl.org/dc/elements/1.1/">
  <defs
     id="defs946">
    <clipPath
       clipPathUnits="userSpaceOnUse"
       id="clipPath907">
      <path
         d="M 0,2000 H 2000 V 0 H 0 Z"
         id="path905" />
    </clipPath>
  </defs>
  <metadata
     id="metadata949">
    <rdf:RDF>
      <cc:Work
         rdf:about="">
        <dc:format>image/svg+xml</dc:format>
        <dc:type
           rdf:resource="http://purl.org/dc/dcmitype/StillImage" />
      </cc:Work>
    </rdf:RDF>
  </metadata>
  <g
     id="layer1"
     transform="translate(0,-217.62498)">
    <g
       transform="matrix(0.35277777,0,0,-0.35277777,-90.764763,589.17554)"
       id="g901">
      <g
         id="g903"
         clip-path="url(#clipPath907)">
        <g
           id="g909"
           transform="translate(322.835,1040.5713)"
           style="fill:#1f384d;fill-opacity:1">
          <path
             d="m 0,0 c 1.437,0 2.155,-0.839 2.155,-2.514 v -12.21 c 0,-1.678 -0.718,-2.514 -2.155,-2.514 h -11.312 c -5.028,0 -8.529,-1.139 -10.505,-3.411 -1.975,-2.276 -2.962,-6.226 -2.962,-11.852 v -49.02 c 0,-4.072 -0.75,-7.721 -2.245,-10.954 -1.498,-3.231 -3.502,-5.925 -6.016,-8.08 2.514,-2.155 4.518,-4.82 6.016,-7.99 1.495,-3.174 2.245,-6.796 2.245,-10.864 v -48.661 c 0,-5.625 0.987,-9.576 2.962,-11.851 1.976,-2.273 5.477,-3.412 10.505,-3.412 H 0 c 1.437,0 2.155,-0.836 2.155,-2.514 v -12.211 c 0,-1.674 -0.718,-2.513 -2.155,-2.513 h -12.031 c -10.414,0 -17.987,2.545 -22.714,7.632 -4.731,5.088 -7.093,13.377 -7.093,24.869 v 49.02 c 0,3.112 -0.628,5.535 -1.885,7.273 -1.257,1.733 -3.681,2.603 -7.273,2.603 h -8.08 c -2.154,0 -3.232,1.077 -3.232,3.233 v 10.953 c 0,2.154 1.078,3.232 3.232,3.232 h 8.08 c 3.592,0 6.016,0.836 7.273,2.514 1.257,1.675 1.885,4.068 1.885,7.181 v 49.56 c 0,11.492 2.362,19.78 7.093,24.87 4.727,5.086 12.3,7.631 22.714,7.631 z"
             style="fill:#1f384d;fill-opacity:1;fill-rule:nonzero;stroke:none"
             id="path911" />
        </g>
        <g
           id="g913"
           transform="translate(371.6738,906.9766)"
           style="fill:#5396cc;fill-opacity:1">
          <path
             d="M 0,0 C 0,-1.557 0.777,-2.334 2.334,-2.334 H 61.23 c 5.267,0 9.697,0.478 13.288,1.437 3.592,0.957 6.493,2.513 8.709,4.668 2.214,2.155 3.799,5.028 4.758,8.62 0.957,3.59 1.437,8.018 1.437,13.287 V 45.43 c 0,5.265 -0.48,9.696 -1.437,13.288 -0.959,3.591 -2.544,6.464 -4.758,8.618 -2.216,2.155 -5.117,3.709 -8.709,4.669 -3.591,0.957 -8.021,1.436 -13.288,1.436 H 2.334 C 0.777,73.441 0,72.603 0,70.928 Z m 61.949,98.4 c 9.697,0 18.015,-0.987 24.959,-2.962 6.942,-1.976 12.629,-5.028 17.058,-9.158 4.428,-4.13 7.691,-9.399 9.786,-15.801 2.094,-6.406 3.143,-13.978 3.143,-22.715 v -24.42 c 0,-8.74 -1.049,-16.313 -3.143,-22.715 -2.095,-6.405 -5.358,-11.672 -9.786,-15.802 -4.429,-4.13 -10.116,-7.182 -17.058,-9.157 -6.944,-1.976 -15.262,-2.963 -24.959,-2.963 h -84.035 c -3.591,0 -5.387,1.796 -5.387,5.387 v 114.92 c 0,3.591 1.796,5.386 5.387,5.386 z"
             style="fill:#5396cc;fill-opacity:1;fill-rule:nonzero;stroke:none"
             id="path915" />
        </g>
        <g
           id="g917"
           transform="translate(532.02,937.502)"
           style="fill:#5396cc;fill-opacity:1">
          <path
             d="m 0,0 h 72.723 c 2.034,0 3.053,1.016 3.053,3.053 v 7.542 c 0,3.709 -0.78,6.343 -2.335,7.9 -1.557,1.555 -4.43,2.335 -8.619,2.335 H 19.752 C 11.969,20.83 6.734,19.601 4.041,17.149 1.347,14.693 0,10.595 0,4.849 Z m 69.85,40.761 c 6.105,0 11.161,-0.51 15.173,-1.526 4.01,-1.018 7.183,-2.693 9.517,-5.028 2.334,-2.334 3.978,-5.387 4.938,-9.157 0.957,-3.771 1.437,-8.35 1.437,-13.737 V -5.745 c 0,-3.833 -0.839,-6.495 -2.514,-7.991 -1.678,-1.498 -4.251,-2.244 -7.722,-2.244 H 0 v -4.31 c 0,-5.628 1.347,-9.696 4.041,-12.21 2.693,-2.514 7.928,-3.771 15.711,-3.771 h 74.877 c 2.156,0 3.233,-1.078 3.233,-3.232 v -15.083 c 0,-2.155 -1.077,-3.232 -3.233,-3.232 H 17.238 c -8.142,0 -14.934,0.656 -20.38,1.975 -5.449,1.316 -9.817,3.44 -13.108,6.374 -3.294,2.932 -5.656,6.703 -7.093,11.313 -1.436,4.606 -2.155,10.145 -2.155,16.609 V 4.311 c 0,6.463 0.719,11.999 2.155,16.609 1.437,4.606 3.799,8.377 7.093,11.311 3.291,2.933 7.659,5.087 13.108,6.465 5.446,1.375 12.238,2.065 20.38,2.065 z"
             style="fill:#5396cc;fill-opacity:1;fill-rule:nonzero;stroke:none"
             id="path919" />
        </g>
        <g
           id="g921"
           transform="translate(664.1763,978.2627)"
           style="fill:#5396cc;fill-opacity:1">
          <path
             d="m 0,0 c 2.034,0 3.471,-0.839 4.31,-2.514 l 42.197,-74.159 c 0.476,-0.718 1.136,-1.077 1.974,-1.077 H 49.2 c 0.836,0 1.495,0.359 1.975,1.077 l 42.377,74.159 c 0.477,0.836 1.015,1.465 1.616,1.886 C 95.766,-0.21 96.663,0 97.861,0 h 19.931 c 1.317,0 2.184,-0.448 2.604,-1.346 0.418,-0.898 0.329,-1.947 -0.269,-3.142 l -49.2,-86.011 c -1.678,-2.993 -3.591,-5.089 -5.746,-6.284 -2.155,-1.198 -5.269,-1.796 -9.337,-1.796 H 41.12 c -3.951,0 -7.003,0.598 -9.158,1.796 -2.155,1.195 -4.071,3.291 -5.746,6.284 l -49.2,86.011 c -0.6,1.195 -0.69,2.244 -0.269,3.142 0.418,0.898 1.285,1.346 2.603,1.346 z"
             style="fill:#5396cc;fill-opacity:1;fill-rule:nonzero;stroke:none"
             id="path923" />
        </g>
        <g
           id="g925"
           transform="translate(1115.4473,1005.377)"
           style="fill:#5396cc;fill-opacity:1">
          <path
             d="m 0,0 c 2.631,0 3.951,-1.318 3.951,-3.95 v -17.059 c 0,-2.635 -1.32,-3.95 -3.951,-3.95 h -89.962 c -3.472,0 -5.925,-0.898 -7.361,-2.693 -1.436,-1.796 -2.155,-4.251 -2.155,-7.363 v -6.104 c 0,-6.706 3.111,-10.056 9.337,-10.056 h 67.336 c 10.415,0 18.254,-2.666 23.524,-7.991 5.265,-5.327 7.899,-12.959 7.899,-22.894 v -14.365 c 0,-8.739 -2.574,-15.802 -7.721,-21.188 -5.148,-5.387 -13.169,-8.08 -24.061,-8.08 h -99.478 c -2.754,0 -4.129,1.315 -4.129,3.95 v 17.058 c 0,2.632 1.375,3.951 4.129,3.951 h 94.271 c 3.471,0 5.926,0.898 7.362,2.693 1.437,1.796 2.155,4.248 2.155,7.362 v 7.363 c 0,6.702 -3.115,10.054 -9.337,10.054 h -67.335 c -10.415,0 -18.258,2.663 -23.524,7.991 -5.269,5.326 -7.901,12.957 -7.901,22.894 v 13.108 c 0,8.737 2.573,15.802 7.722,21.189 5.145,5.387 13.166,8.08 24.061,8.08 z"
             style="fill:#5396cc;fill-opacity:1;fill-rule:nonzero;stroke:none"
             id="path927" />
        </g>
        <g
           id="g929"
           transform="translate(1165.7236,1014.355)"
           style="fill:#5396cc;fill-opacity:1">
          <path
             d="m 0,0 c 2.631,0 3.95,-1.318 3.95,-3.95 v -32.142 h 67.156 c 8.019,0 14.784,-0.69 20.29,-2.065 5.505,-1.378 9.905,-3.532 13.199,-6.465 3.291,-2.934 5.656,-6.705 7.093,-11.311 1.436,-4.61 2.154,-10.146 2.154,-16.609 v -58.179 c 0,-2.635 -1.319,-3.95 -3.95,-3.95 H 92.295 c -2.635,0 -3.95,1.315 -3.95,3.95 v 52.073 c 0,3.709 -0.241,6.852 -0.719,9.427 -0.48,2.573 -1.408,4.606 -2.783,6.105 -1.378,1.495 -3.264,2.573 -5.656,3.233 -2.397,0.656 -5.508,0.987 -9.337,0.987 H 3.95 v -71.825 c 0,-2.635 -1.319,-3.95 -3.95,-3.95 h -17.598 c -2.633,0 -3.95,1.315 -3.95,3.95 V -3.95 c 0,2.632 1.317,3.95 3.95,3.95 z"
             style="fill:#5396cc;fill-opacity:1;fill-rule:nonzero;stroke:none"
             id="path931" />
        </g>
        <g
           id="g933"
           transform="translate(1393.4082,899.4355)"
           style="fill:#5396cc;fill-opacity:1">
          <path
             d="M 0,0 C 1.914,0 3.261,0.448 4.04,1.347 4.817,2.244 5.208,3.83 5.208,6.105 v 15.801 h -65.721 c -3.712,0 -6.315,-0.749 -7.81,-2.244 -1.498,-1.498 -2.245,-3.682 -2.245,-6.555 v -3.77 c 0,-3.232 0.747,-5.598 2.245,-7.093 C -66.828,0.746 -64.225,0 -60.513,0 Z m -11.851,78.827 c 8.019,0 14.784,-0.689 20.29,-2.064 5.505,-1.378 9.905,-3.533 13.199,-6.465 3.291,-2.935 5.656,-6.705 7.092,-11.312 1.437,-4.61 2.155,-10.145 2.155,-16.609 V -5.388 c 0,-2.872 -0.21,-5.237 -0.629,-7.091 -0.421,-1.858 -1.138,-3.323 -2.154,-4.4 -1.019,-1.077 -2.366,-1.827 -4.04,-2.245 -1.678,-0.42 -3.833,-0.628 -6.465,-0.628 h -85.471 c -5.27,0 -9.669,0.508 -13.198,1.526 -3.532,1.016 -6.374,2.542 -8.53,4.58 -2.155,2.033 -3.68,4.667 -4.579,7.9 -0.897,3.232 -1.346,7.061 -1.346,11.492 v 8.618 c 0,3.709 0.449,7.032 1.346,9.966 0.899,2.933 2.424,5.415 4.579,7.452 2.156,2.034 4.998,3.561 8.53,4.579 3.529,1.016 7.928,1.527 13.198,1.527 H 5.208 v 3.411 c 0,2.873 -0.301,5.325 -0.898,7.362 -0.601,2.034 -1.617,3.681 -3.053,4.939 -1.436,1.256 -3.411,2.182 -5.925,2.782 -2.514,0.597 -5.746,0.898 -9.697,0.898 h -75.057 c -2.154,0 -3.232,1.077 -3.232,3.233 v 15.083 c 0,2.154 1.078,3.231 3.232,3.231 z"
             style="fill:#5396cc;fill-opacity:1;fill-rule:nonzero;stroke:none"
             id="path935" />
        </g>
        <g
           id="g937"
           transform="translate(1535.9785,978.2627)"
           style="fill:#5396cc;fill-opacity:1">
          <path
             d="m 0,0 c 2.155,0 3.231,-1.077 3.231,-3.231 v -15.083 c 0,-2.156 -1.076,-3.233 -3.231,-3.233 h -47.764 c -3.832,0 -7.003,-0.331 -9.516,-0.987 -2.514,-0.659 -4.521,-1.737 -6.016,-3.233 -1.498,-1.498 -2.545,-3.532 -3.142,-6.105 -0.601,-2.575 -0.898,-5.718 -0.898,-9.427 v -53.33 c 0,-2.635 -1.318,-3.95 -3.95,-3.95 h -17.597 c -2.756,0 -4.131,1.315 -4.131,3.95 v 58.179 c 0,6.464 0.719,11.999 2.156,16.609 1.435,4.607 3.798,8.377 7.092,11.312 3.291,2.932 7.66,5.087 13.108,6.465 C -65.212,-0.689 -58.42,0 -50.277,0 Z"
             style="fill:#5396cc;fill-opacity:1;fill-rule:nonzero;stroke:none"
             id="path939" />
        </g>
        <g
           id="g941"
           transform="translate(1575.1221,937.502)"
           style="fill:#5396cc;fill-opacity:1">
          <path
             d="m 0,0 h 72.723 c 2.033,0 3.051,1.016 3.051,3.053 v 7.542 c 0,3.709 -0.78,6.343 -2.334,7.9 -1.557,1.555 -4.43,2.335 -8.619,2.335 H 19.751 C 11.969,20.83 6.733,19.601 4.039,17.149 1.347,14.693 0,10.595 0,4.849 Z m 69.85,40.761 c 6.104,0 11.16,-0.51 15.172,-1.526 4.009,-1.018 7.183,-2.693 9.517,-5.028 2.334,-2.334 3.979,-5.387 4.938,-9.157 0.957,-3.771 1.437,-8.35 1.437,-13.737 V -5.745 c 0,-3.833 -0.84,-6.495 -2.515,-7.991 -1.676,-1.498 -4.25,-2.244 -7.72,-2.244 H 0 v -4.31 c 0,-5.628 1.347,-9.696 4.039,-12.21 2.694,-2.514 7.93,-3.771 15.712,-3.771 h 74.878 c 2.155,0 3.231,-1.078 3.231,-3.232 v -15.083 c 0,-2.155 -1.076,-3.232 -3.231,-3.232 H 17.237 c -8.141,0 -14.934,0.656 -20.38,1.975 -5.449,1.316 -9.817,3.44 -13.108,6.374 -3.294,2.932 -5.656,6.703 -7.093,11.313 -1.436,4.606 -2.154,10.145 -2.154,16.609 V 4.311 c 0,6.463 0.718,11.999 2.154,16.609 1.437,4.606 3.799,8.377 7.093,11.311 3.291,2.933 7.659,5.087 13.108,6.465 5.446,1.375 12.239,2.065 20.38,2.065 z"
             style="fill:#5396cc;fill-opacity:1;fill-rule:nonzero;stroke:none"
             id="path943" />
        </g>
        <g
           id="g945"
           transform="translate(1693.4502,840)"
           style="fill:#1f384d;fill-opacity:1">
          <path
             d="m 0,0 c -1.436,0 -2.154,0.839 -2.154,2.514 v 12.211 c 0,1.677 0.718,2.513 2.154,2.513 h 11.313 c 5.027,0 8.529,1.139 10.504,3.412 1.976,2.275 2.963,6.226 2.963,11.851 v 49.02 c 0,4.069 0.746,7.722 2.244,10.954 1.497,3.232 3.501,5.925 6.016,8.08 -2.515,2.155 -4.519,4.817 -6.016,7.991 -1.498,3.17 -2.244,6.792 -2.244,10.863 v 48.661 c 0,5.626 -0.987,9.576 -2.963,11.852 -1.975,2.272 -5.477,3.411 -10.504,3.411 H 0 c -1.436,0 -2.154,0.836 -2.154,2.514 v 12.21 c 0,1.675 0.718,2.514 2.154,2.514 h 12.031 c 10.414,0 17.985,-2.545 22.715,-7.631 4.728,-5.089 7.093,-13.378 7.093,-24.87 v -49.02 c 0,-3.114 0.628,-5.538 1.886,-7.273 1.256,-1.736 3.68,-2.603 7.271,-2.603 h 8.08 c 2.154,0 3.233,-1.077 3.233,-3.232 V 94.988 c 0,-2.154 -1.079,-3.231 -3.233,-3.231 h -8.08 c -3.591,0 -6.015,-0.839 -7.271,-2.514 -1.258,-1.678 -1.886,-4.071 -1.886,-7.182 V 32.501 C 41.839,21.009 39.474,12.721 34.746,7.632 30.016,2.545 22.445,0 12.031,0 Z"
             style="fill:#1f384d;fill-opacity:1;fill-rule:nonzero;stroke:none"
             id="path947" />
        </g>
        <g
           id="g949"
           transform="translate(976.4761,1019.6616)"
           style="fill:#709965;fill-opacity:1">
          <path
             d="m 0,0 c -3.343,-15.998 -6.479,-32.036 -9.679,-48.058 -4.58,2.178 -6.885,3.35 -11.402,5.625 -80.589,-92.558 15.958,17.555 -67.025,-75.802 -16.493,12.097 -33.082,20.507 -49.566,32.619 -19.94,-21.065 -39.353,-42.649 -58.863,-64.104 -6.351,5.353 -12.631,10.779 -18.894,16.245 l 15.041,17.953 c 0.063,-0.04 0.127,-0.08 0.191,-0.12 19.038,22.837 38.116,45.657 57.338,68.35 15.041,-11.522 30.329,-22.725 45.394,-34.207 1.196,-0.71 3.008,-2.825 4.236,-0.854 17.619,17.842 35.324,35.571 52.926,53.429 -4.149,4.149 -8.338,8.226 -12.471,12.376 C -35.212,-10.907 -17.586,-5.553 0,0"
             style="fill:#709965;fill-opacity:1;fill-rule:nonzero;stroke:none"
             id="path951" />
        </g>
      </g>
    </g>
  </g>
</svg>
