<?xml version="1.0" encoding="UTF-8" standalone="no"?>
<!-- Created with Inkscape (http://www.inkscape.org/) -->

<svg
   width="750"
   height="600"
   viewBox="0 0 198.4375 158.75"
   version="1.1"
   id="svg2298"
   xmlns="http://www.w3.org/2000/svg"
   xmlns:svg="http://www.w3.org/2000/svg"
   xmlns:rdf="http://www.w3.org/1999/02/22-rdf-syntax-ns#"
   xmlns:cc="http://creativecommons.org/ns#"
   xmlns:dc="http://purl.org/dc/elements/1.1/">
  <defs
     id="defs2292" />
  <metadata
     id="metadata2295">
    <rdf:RDF>
      <cc:Work
         rdf:about="">
        <dc:format>image/svg+xml</dc:format>
        <dc:type
           rdf:resource="http://purl.org/dc/dcmitype/StillImage" />
      </cc:Work>
    </rdf:RDF>
  </metadata>
  <g
     id="layer1"
     transform="translate(0,-138.24999)">
    <g
       id="g1045"
       transform="matrix(0.35277777,0,0,-0.35277777,47.487247,295.01721)"
       style="fill:#1f384d;fill-opacity:1">
      <path
         d="m 0,0 h -21.877 c -19.849,0 -35.865,6.443 -48.059,19.333 -11.717,12.17 -17.573,27.688 -17.573,46.538 v 100.247 c 0,26.255 -14.586,39.383 -43.755,39.383 v 26.54 c 29.169,0 43.755,13.271 43.755,39.81 V 372.27 c 0,18.65 5.974,34.251 17.933,46.803 11.952,12.552 27.85,18.829 47.699,18.829 H 0 v -26.181 h -21.877 c -26.54,0 -39.809,-13.14 -39.809,-39.412 v -100.33 c 0,-11.465 -3.586,-22.336 -10.76,-32.603 -7.89,-10.752 -17.814,-17.561 -29.767,-20.425 11.477,-2.387 21.277,-9.079 29.408,-20.068 7.409,-10.272 11.119,-21.138 11.119,-32.603 V 65.95 c 0,-26.512 13.269,-39.769 39.809,-39.769 H 0 Z"
         style="fill:#1f384d;fill-opacity:1;fill-rule:nonzero;stroke:none"
         id="path1047" />
    </g>
    <g
       id="g1049"
       transform="matrix(0.35277777,0,0,-0.35277777,197.33287,222.52085)"
       style="fill:#1f384d;fill-opacity:1">
      <path
         d="M 0,0 C -29.174,0 -43.755,-13.129 -43.755,-39.384 V -139.63 c 0,-18.851 -5.979,-34.369 -17.933,-46.538 -12.194,-12.89 -28.214,-19.333 -48.058,-19.333 h -21.878 v 26.18 h 21.878 c 26.541,0 39.809,13.258 39.809,39.77 v 100.33 c 0,11.465 3.883,22.511 11.656,33.142 7.767,10.629 17.511,17.142 29.23,19.528 -11.958,2.864 -21.759,9.55 -29.408,20.061 -7.656,10.513 -11.478,21.503 -11.478,32.968 v 100.33 c 0,26.272 -13.268,39.411 -39.809,39.411 h -21.878 V 232.4 h 21.878 c 19.844,0 35.803,-6.276 47.879,-18.828 12.07,-12.552 18.112,-28.154 18.112,-46.803 V 66.349 c 0,-26.539 14.581,-39.81 43.755,-39.81 z"
         style="fill:#1f384d;fill-opacity:1;fill-rule:nonzero;stroke:none"
         id="path1051" />
    </g>
    <g
       transform="matrix(0.62309648,0,0,-0.62309648,166.30497,170.66761)"
       id="g949"
       style="fill:#709965;fill-opacity:1">
      <path
         id="path951"
         style="fill:#709965;fill-opacity:1;fill-rule:nonzero;stroke:none"
         d="m 0,0 c -3.343,-15.998 -6.479,-32.036 -9.679,-48.058 -4.58,2.178 -6.885,3.35 -11.402,5.625 -80.589,-92.558 15.958,17.555 -67.025,-75.802 -16.493,12.097 -33.082,20.507 -49.566,32.619 -19.94,-21.065 -39.353,-42.649 -58.863,-64.104 -6.351,5.353 -12.631,10.779 -18.894,16.245 l 15.041,17.953 c 0.063,-0.04 0.127,-0.08 0.191,-0.12 19.038,22.837 38.116,45.657 57.338,68.35 15.041,-11.522 30.329,-22.725 45.394,-34.207 1.196,-0.71 3.008,-2.825 4.236,-0.854 17.619,17.842 35.324,35.571 52.926,53.429 -4.149,4.149 -8.338,8.226 -12.471,12.376 C -35.212,-10.907 -17.586,-5.553 0,0" />
    </g>
  </g>
</svg>
